<svg width="32" height="32" viewBox="0 0 32 32" fill="none" xmlns="http://www.w3.org/2000/svg">
<g clip-path="url(#clip0)">
<path d="M16.2 31.994H16.186C7.31499 31.994 0.205993 25.064 -0.00100708 16.215C-7.08003e-06 7.26198 7.09199 0.000976562 15.81 0.000976562C24.681 0.000976562 31.789 6.93198 31.994 15.779C32.199 24.511 25.118 31.787 16.217 31.994H16.2ZM15.81 2.44298C8.43899 2.44298 2.44299 8.60898 2.44299 16.187C2.61699 23.664 8.64699 29.542 16.173 29.55C23.723 29.366 29.723 23.216 29.551 15.835C29.378 8.32598 23.342 2.44298 15.81 2.44298Z" fill="black"/>
<path d="M15.782 26.8889C11.036 26.8889 6.841 23.6449 5.745 19.2849C5.452 19.2669 5.165 19.152 4.948 18.937C4.47 18.46 4.427 17.697 4.903 17.218C5.018 17.103 5.608 16.5559 6.526 16.4859C7.52 16.2499 8.361 16.7609 8.53 16.8749C9.092 17.2499 9.244 18.008 8.869 18.568C8.707 18.81 8.473 18.9759 8.216 19.0559C9.208 22.2629 12.502 24.5769 16.14 24.4349C19.901 24.4349 23.023 22.1339 23.978 18.8859C23.582 18.8199 23.223 18.5699 23.052 18.1849C22.787 17.5869 23.013 16.898 23.597 16.607C23.754 16.531 24.442 16.2649 25.39 16.2929C25.452 16.2929 25.51 16.2909 25.571 16.2949C25.683 16.3049 25.789 16.3279 25.89 16.3649C26.568 16.5329 26.997 16.933 27.093 17.031C27.57 17.51 27.566 18.2829 27.087 18.7579C26.906 18.9379 26.683 19.0489 26.452 19.0919C25.37 23.6229 21.199 26.8809 16.186 26.8809C16.051 26.8869 15.916 26.8889 15.782 26.8889Z" fill="black"/>
<path d="M20.165 10.883C20.165 12.778 20.923 14.291 21.682 14.291C22.439 14.291 23.007 12.777 23.007 10.883C23.007 8.987 22.248 7.474 21.491 7.474C20.732 7.474 20.165 8.986 20.165 10.883Z" fill="black"/>
<path d="M14.671 11.072C14.671 12.967 15.43 14.48 16.189 14.48C16.946 14.48 17.512 12.966 17.512 11.072C17.512 9.17799 16.755 7.66199 15.998 7.66199C15.239 7.66199 14.671 9.17799 14.671 11.072Z" fill="black"/>
<path d="M8.79898 11.072C8.79898 12.967 9.55598 14.48 10.315 14.48C11.073 14.48 11.64 12.966 11.64 11.072C11.64 9.17799 10.883 7.66199 10.126 7.66199C9.36698 7.66199 8.79898 9.17799 8.79898 11.072Z" fill="black"/>
</g>
<defs>
<clipPath id="clip0">
<rect width="32" height="32" fill="white"/>
</clipPath>
</defs>
</svg>
